/* XPM */
static char * trafo_xpm[] = {
"32 32 3 1",
" 	c None",
".	c #C0C0C0",
"+	c #000000",
"................................",
"................................",
".....++++++++++++++.............",
".....++++++++++++++.............",
".................++.............",
".................++.............",
".................+++++++..++....",
".................+++++++..++....",
".................+++++++..++....",
".................+++++++..++....",
".................+++++++..++....",
".................+++++++..++....",
".................+++++++..++....",
".................+++++++..++....",
".................+++++++..++....",
".................+++++++..++....",
".................+++++++..++....",
".................+++++++..++....",
".................+++++++..++....",
".................+++++++..++....",
".................+++++++..++....",
".................+++++++..++....",
".................+++++++..++....",
".................+++++++..++....",
".................+++++++..++....",
".................+++++++..++....",
".................+++++++..++....",
".................++.............",
".................++.............",
".....++++++++++++++.............",
".....++++++++++++++.............",
"................................"};
